<?xml version="1.0" encoding="utf-8"?>
<!-- Generator: Adobe Illustrator 16.0.4, SVG Export Plug-In . SVG Version: 6.00 Build 0)  -->
<!DOCTYPE svg PUBLIC "-//W3C//DTD SVG 1.1//EN" "http://www.w3.org/Graphics/SVG/1.1/DTD/svg11.dtd">
<svg version="1.1" id="Layer_1" xmlns="http://www.w3.org/2000/svg" xmlns:xlink="http://www.w3.org/1999/xlink" x="0px" y="0px"
	 width="800px" height="800px" viewBox="0 0 800 800" enable-background="new 0 0 800 800" xml:space="preserve">
<path fill="#FFFFFF" d="M545.241,487.111l-75.064-75.049l-58.097,58.119l84.715,84.715l-96.779,96.779l-96.808-96.809
	L545.19,312.863c18.104-18.088,28.096-42.156,28.072-67.774c0.023-20.989-6.701-40.928-19.091-57.412
	c-2.727-3.617-5.71-7.079-8.971-10.34l-2.427-2.415l-72.582-72.615l-2.435-2.424c-3.263-3.263-6.716-6.245-10.345-8.971
	c-16.478-12.39-36.438-19.088-57.421-19.105c-25.601,0.017-49.68,9.985-67.779,28.079L187.015,245.094l-9.674,9.675
	c-12.729,12.741-23.724,27.047-32.686,42.524c-8.977,15.521-15.859,32.18-20.508,49.531c-4.619,17.303-6.965,35.197-6.953,53.174
	c-0.012,17.947,2.344,35.851,6.958,53.174c9.275,34.68,27.659,66.52,53.185,92.018l154.896,154.929
	c18.121,18.089,42.175,28.065,67.765,28.065c20.997-0.009,40.942-6.718,57.424-19.103c0,0,0,0,0.003-0.009l0.008,0.009
	c3.623-2.727,7.07-5.702,10.343-8.963l2.424-2.424l-0.006-0.006l75.049-75.03c1.842-1.837,3.56-3.749,5.209-5.698
	c1.299-1.519,2.565-3.059,3.755-4.652l-0.012-0.018l0,0C582.291,574.775,579.307,521.205,545.241,487.111z M235.433,487.1
	c-15.277-15.285-26.299-34.379-31.865-55.24c-2.771-10.374-4.178-21.097-4.178-31.861c0.004-10.773,1.406-21.492,4.182-31.875
	c2.773-10.405,6.9-20.413,12.293-29.729c5.383-9.327,11.99-17.914,19.568-25.526l9.668-9.667l84.697,84.697l58.104-58.104
	L303.226,245.1l-0.018-0.006l96.785-96.772l0.006,0.011l96.762,96.762L245.103,496.78L235.433,487.1z"/>
</svg>
