<?xml version="1.0" encoding="utf-8"?>
<!-- Generator: Adobe Illustrator 16.0.4, SVG Export Plug-In . SVG Version: 6.00 Build 0)  -->
<!DOCTYPE svg PUBLIC "-//W3C//DTD SVG 1.1//EN" "http://www.w3.org/Graphics/SVG/1.1/DTD/svg11.dtd">
<svg version="1.1" id="Layer_1" xmlns="http://www.w3.org/2000/svg" xmlns:xlink="http://www.w3.org/1999/xlink" x="0px" y="0px"
	 width="800px" height="800px" viewBox="0 0 800 800" enable-background="new 0 0 800 800" xml:space="preserve">
<g>
	
		<rect x="196.951" y="371.494" transform="matrix(-0.7071 0.7071 -0.7071 -0.7071 896.8564 371.4764)" fill="none" width="349.074" height="0"/>
	<path fill="none" d="M388.14,331.144l-56.992,56.992l-83.07-83.073l0,0l83.07,83.073l-83.07-83.073l-9.479,9.479
		c-7.438,7.461-13.918,15.88-19.191,25.032c-5.3,9.138-9.344,18.955-12.07,29.165c-2.717,10.176-4.092,31.252-4.092,31.252
		s1.375,21.074,4.092,31.251c5.467,20.467,16.275,39.195,31.262,54.186l9.479,9.488l246.822-246.843l-94.901-94.905l-94.915,94.904
		L388.14,331.144z"/>
	<path fill="#EDEDED" d="M466.466,694.34l75.984-75.959c3.221-3.229,6.142-6.64,8.789-10.166l-56.303-56.295l-94.918,94.916
		l56.305,56.303C459.874,700.471,463.265,697.539,466.466,694.34z"/>
	<path fill="#F1F1F1" d="M400.019,646.836l56.305,56.303c3.562-2.668,6.94-5.589,10.143-8.791l2.39-2.376l-56.993-56.981
		L400.019,646.836z"/>
	<path fill="#F1F1F1" d="M542.45,618.357c3.197-3.191,6.117-6.58,8.789-10.135l-56.303-56.303l-11.85,11.832l56.994,56.994
		L542.45,618.357z"/>
	<g>
		<path fill="#FFE45C" d="M542.45,485.439l-73.627-73.615l-56.973,57l139.389,139.391
			C578.792,571.418,575.862,518.867,542.45,485.439z"/>
		<path fill="#FFE45C" d="M399.997,78.111c-25.125,0.011-48.732,9.792-66.479,27.541l-142.409,142.42l-9.49,9.488
			c-12.486,12.489-23.271,26.53-32.061,41.699c-8.806,15.226-15.553,31.569-20.119,48.586c-4.519,16.972-6.816,34.521-6.816,52.146
			h80.623c0-10.56,1.375-21.076,4.092-31.252c2.727-10.21,6.771-20.027,12.07-29.165c5.273-9.152,11.754-17.571,19.191-25.032
			l9.479-9.479l0,0l83.07,83.073l56.992-56.992l-83.057-83.072l-0.012,0l94.926-94.916l0.001,0.011l56.314-56.317
			C440.147,84.692,420.577,78.122,399.997,78.111z"/>
		<polygon fill="#FFE45C" points="456.978,399.981 399.997,456.973 411.851,468.824 468.843,411.838 		"/>
		
			<rect x="325.272" y="357.172" transform="matrix(0.7071 -0.7071 0.7071 0.7071 -151.4131 365.566)" fill="#FFE45C" width="80.602" height="16.768"/>
	</g>
	<path fill="#34DEA9" d="M494.899,248.073L248.077,494.916l0,0l0,0l0,0l-9.479-9.488c-14.986-14.99-25.795-33.719-31.262-54.186
		c-2.717-10.178-4.092-20.689-4.092-31.251l0,0h-80.623c0,17.604,2.299,35.16,6.828,52.158
		c9.093,34.014,27.126,65.243,52.168,90.248l151.906,151.951c17.787,17.739,41.373,27.535,66.473,27.535
		c20.602-0.025,40.152-6.594,56.326-18.744l-56.305-56.303l0,0l-94.947-94.947l237.33-237.357
		c17.75-17.741,27.557-41.337,27.533-66.47c0.023-20.578-6.58-40.143-18.73-56.305L494.899,248.073L494.899,248.073z"/>
	
		<rect x="325.272" y="357.172" transform="matrix(0.7071 -0.7071 0.7071 0.7071 -151.4131 365.566)" fill="#F2D857" width="80.602" height="16.768"/>
	<path fill="#EDEDED" d="M542.413,181.613l-2.389-2.365l-71.18-71.227l-2.391-2.379c-3.199-3.199-6.592-6.119-10.142-8.791
		l-56.314,56.317l11.853,11.844l71.205,71.217l11.844,11.844l56.305-56.316C548.536,188.205,545.604,184.814,542.413,181.613z"/>
	<polygon fill="#F2D857" points="456.978,399.981 399.997,456.973 411.851,468.824 468.843,411.838 	"/>
	<g>
		<path opacity="0.1" fill="#696969" d="M400.019,646.836l56.305,56.303c3.562-2.668,6.94-5.589,10.143-8.791l2.39-2.376
			l-56.993-56.981L400.019,646.836z"/>
		<path opacity="0.1" fill="#696969" d="M542.45,618.357c3.197-3.191,6.117-6.58,8.789-10.135l-56.303-56.303l-11.85,11.832
			l56.994,56.994L542.45,618.357z"/>
		<path opacity="0.1" fill="#696969" d="M494.899,248.073l56.305-56.316c-2.668-3.552-5.6-6.942-8.791-10.144l-2.389-2.365
			l-56.969,56.981L494.899,248.073z"/>
		<path opacity="0.1" fill="#696969" d="M466.454,105.642c-3.199-3.199-6.592-6.119-10.142-8.791l-56.314,56.317l11.853,11.844
			l56.994-56.991L466.454,105.642z"/>
	</g>
</g>
</svg>
